<?xml version="1.0" standalone="no"?>
<!DOCTYPE svg PUBLIC "-//W3C//DTD SVG 1.0//EN" "http://www.w3.org/TR/2001/REC-SVG-20010904/DTD/svg10.dtd">
<svg xmlns="http://www.w3.org/2000/svg" xmlns:xlink="http://www.w3.org/1999/xlink" id="body_1" width="24" height="24">

<g transform="matrix(1.5 0 0 1.5 0 0)">
    <path d="M8.004 2.004L8.004 6.057L9.004 6.057L9.004 2.004L8.004 2.004zM5.7539997 3.7680001C 3.5991802 5.0127826 2.547892 7.5487494 3.19 9.953C 3.8357315 12.356645 6.0141306 14.027857 8.503 14.029C 10.991499 14.027406 13.169366 12.356287 13.815001 9.953C 14.457468 7.5492163 13.407057 5.013386 11.253 3.7680001L11.253 3.7680001L10.753 4.6330004C 12.517794 5.6506186 13.3778305 7.7276716 12.849 9.695C 12.323562 11.6629925 10.539929 13.031292 8.503 13.028999C 6.466072 13.031293 4.6824393 11.662993 4.157 9.695C 3.6281705 7.7276716 4.488207 5.6506176 6.2530003 4.633L6.2530003 4.633L5.7530003 3.768z" stroke="none" fill="#71767b" fill-rule="nonzero" />
</g>
</svg>